<?xml version="1.0" standalone="no"?>
<!DOCTYPE svg PUBLIC "-//W3C//DTD SVG 20010904//EN"
 "http://www.w3.org/TR/2001/REC-SVG-20010904/DTD/svg10.dtd">
<svg version="1.0" xmlns="http://www.w3.org/2000/svg"
 width="50.000000pt" height="54.000000pt" viewBox="0 0 50.000000 54.000000"
 preserveAspectRatio="xMidYMid meet">

<g transform="translate(0.000000,54.000000) scale(0.100000,-0.100000)"
fill="white" stroke="none">
<path d="M441 516 c-6 -8 -35 -24 -64 -36 -29 -12 -64 -31 -78 -41 -26 -18
-27 -18 -32 1 -3 11 -12 20 -21 20 -20 0 -21 -16 -1 -24 9 -3 15 -18 15 -36 0
-25 -4 -30 -25 -30 -14 0 -45 5 -69 12 -38 10 -48 9 -70 -6 -93 -60 -87 -197
12 -305 37 -40 37 -40 130 -47 l94 -6 57 58 c77 80 101 162 64 224 -20 35 -84
72 -127 73 -38 1 -42 25 -10 57 26 26 132 71 139 59 15 -23 -22 -64 -75 -86
-64 -26 -56 -30 18 -8 58 18 72 36 72 94 0 42 -9 51 -29 27z m-158 -173 c-7
-2 -19 -2 -25 0 -7 3 -2 5 12 5 14 0 19 -2 13 -5z"/>
<path d="M331 429 c-18 -11 -31 -22 -28 -25 2 -3 22 6 42 21 45 30 34 34 -14
4z"/>
</g>
</svg>
